<svg width="490" height="278" viewBox="0 0 490 278" fill="none" xmlns="http://www.w3.org/2000/svg">
<g filter="url(#filter0_d_2476_2)">
<rect x="54.3333" y="48" width="357.333" height="146" rx="16" fill="white" shape-rendering="crispEdges"/>
<mask id="path-2-inside-1_2476_2" fill="white">
<path d="M69.4999 67H396.5V145H69.4999V67Z"/>
</mask>
<path d="M396.5 145V144.5H69.4999V145V145.5H396.5V145Z" fill="#E3E8EF" mask="url(#path-2-inside-1_2476_2)"/>
<path d="M190.81 72.8182H191.884L194.901 77.6506H194.991L198.009 72.8182H199.082L195.408 78.5902V83H194.484V78.5902L190.81 72.8182ZM202.533 83.1591C201.873 83.1591 201.29 82.9917 200.783 82.657C200.279 82.3222 199.885 81.8598 199.599 81.2699C199.314 80.6766 199.172 79.9922 199.172 79.2166C199.172 78.4344 199.314 77.7467 199.599 77.1534C199.885 76.5568 200.279 76.0928 200.783 75.7614C201.29 75.4266 201.873 75.2592 202.533 75.2592C203.192 75.2592 203.774 75.4266 204.278 75.7614C204.782 76.0961 205.176 76.5601 205.461 77.1534C205.749 77.7467 205.894 78.4344 205.894 79.2166C205.894 79.9922 205.751 80.6766 205.466 81.2699C205.181 81.8598 204.785 82.3222 204.278 82.657C203.774 82.9917 203.192 83.1591 202.533 83.1591ZM202.533 82.3487C203.063 82.3487 203.512 82.2062 203.88 81.9212C204.248 81.6361 204.526 81.2566 204.715 80.7827C204.907 80.3087 205.004 79.7867 205.004 79.2166C205.004 78.6465 204.907 78.1229 204.715 77.6456C204.526 77.1683 204.248 76.7855 203.88 76.4972C203.512 76.2088 203.063 76.0646 202.533 76.0646C202.006 76.0646 201.557 76.2088 201.185 76.4972C200.818 76.7855 200.537 77.1683 200.345 77.6456C200.156 78.1229 200.062 78.6465 200.062 79.2166C200.062 79.7867 200.156 80.3087 200.345 80.7827C200.537 81.2566 200.818 81.6361 201.185 81.9212C201.553 82.2062 202.002 82.3487 202.533 82.3487ZM212.688 80.0817V75.3636H213.573V83H212.688V81.7322H212.619C212.44 82.1233 212.156 82.4498 211.769 82.7116C211.381 82.9702 210.907 83.0994 210.347 83.0994C209.86 83.0994 209.427 82.9934 209.049 82.7812C208.671 82.5658 208.375 82.2509 208.159 81.8366C207.944 81.4223 207.836 80.9136 207.836 80.3104V75.3636H208.721V80.2557C208.721 80.8523 208.897 81.3329 209.248 81.6974C209.599 82.0587 210.05 82.2393 210.6 82.2393C210.945 82.2393 211.277 82.1565 211.595 81.9908C211.913 81.825 212.175 81.5831 212.38 81.2649C212.586 80.9434 212.688 80.549 212.688 80.0817ZM215.916 83V75.3636H216.776V76.5369H216.841C216.993 76.1525 217.259 75.8426 217.636 75.6072C218.018 75.3686 218.448 75.2493 218.929 75.2493C219.002 75.2493 219.083 75.2509 219.173 75.2543C219.262 75.2576 219.337 75.2609 219.396 75.2642V76.1641C219.357 76.1574 219.287 76.1475 219.188 76.1342C219.088 76.121 218.98 76.1143 218.864 76.1143C218.467 76.1143 218.112 76.1989 217.8 76.3679C217.492 76.5336 217.249 76.764 217.07 77.0589C216.891 77.3539 216.801 77.6903 216.801 78.0682V83H215.916ZM225.028 83V72.8182H228.463C229.126 72.8182 229.678 72.9342 230.119 73.1662C230.563 73.3982 230.896 73.7147 231.118 74.1158C231.34 74.5168 231.451 74.9725 231.451 75.483C231.451 75.9072 231.38 76.2701 231.237 76.5717C231.095 76.8733 230.901 77.117 230.656 77.3026C230.411 77.4882 230.137 77.6224 229.835 77.7053V77.7848C230.164 77.808 230.482 77.924 230.79 78.1328C231.098 78.3383 231.352 78.6267 231.551 78.9979C231.75 79.3691 231.849 79.8132 231.849 80.3303C231.849 80.844 231.735 81.303 231.506 81.7074C231.277 82.1084 230.926 82.425 230.452 82.657C229.981 82.8857 229.381 83 228.652 83H225.028ZM225.958 82.1648H228.652C229.438 82.1648 230.018 81.9908 230.392 81.6428C230.77 81.2947 230.959 80.8572 230.959 80.3303C230.959 79.9425 230.865 79.5911 230.676 79.2763C230.49 78.9581 230.227 78.7062 229.885 78.5206C229.547 78.335 229.149 78.2422 228.692 78.2422H225.958V82.1648ZM225.958 77.4169H228.548C228.949 77.4169 229.3 77.334 229.602 77.1683C229.903 77.0026 230.139 76.7739 230.308 76.4822C230.477 76.1906 230.561 75.8575 230.561 75.483C230.561 74.9427 230.386 74.5036 230.034 74.1655C229.683 73.8241 229.159 73.6534 228.463 73.6534H225.958V77.4169ZM236.041 83.174C235.581 83.174 235.16 83.0845 234.778 82.9055C234.397 82.7232 234.094 82.4614 233.869 82.12C233.643 81.7753 233.531 81.3577 233.531 80.8672C233.531 80.4893 233.602 80.1712 233.744 79.9126C233.887 79.6541 234.089 79.442 234.351 79.2763C234.613 79.1106 234.923 78.9796 235.281 78.8835C235.639 78.7874 236.033 78.7128 236.464 78.6598C236.891 78.6068 237.253 78.5604 237.548 78.5206C237.846 78.4808 238.073 78.4179 238.229 78.3317C238.385 78.2455 238.462 78.1063 238.462 77.9141V77.7351C238.462 77.2147 238.307 76.8054 237.995 76.5071C237.687 76.2055 237.243 76.0547 236.663 76.0547C236.113 76.0547 235.663 76.1757 235.315 76.4176C234.971 76.6596 234.729 76.9446 234.59 77.2727L233.749 76.9695C233.922 76.5518 234.16 76.2187 234.465 75.9702C234.77 75.7183 235.112 75.5376 235.489 75.4283C235.867 75.3156 236.25 75.2592 236.638 75.2592C236.93 75.2592 237.233 75.2973 237.548 75.3736C237.866 75.4498 238.161 75.5824 238.433 75.7713C238.704 75.9569 238.925 76.2171 239.094 76.5518C239.263 76.8833 239.347 77.3042 239.347 77.8146V83H238.462V81.7919H238.408C238.302 82.0173 238.144 82.236 237.935 82.4482C237.727 82.6603 237.465 82.8343 237.15 82.9702C236.835 83.1061 236.465 83.174 236.041 83.174ZM236.161 82.3636C236.631 82.3636 237.039 82.2592 237.384 82.0504C237.728 81.8416 237.993 81.5649 238.179 81.2202C238.368 80.8722 238.462 80.4893 238.462 80.0717V78.968C238.396 79.031 238.285 79.0874 238.129 79.1371C237.977 79.1868 237.8 79.2315 237.597 79.2713C237.398 79.3078 237.2 79.3393 237.001 79.3658C236.802 79.3923 236.623 79.4155 236.464 79.4354C236.033 79.4884 235.665 79.5713 235.36 79.6839C235.055 79.7966 234.822 79.9524 234.659 80.1513C234.497 80.3468 234.416 80.5987 234.416 80.907C234.416 81.371 234.581 81.7306 234.913 81.9858C235.244 82.2377 235.66 82.3636 236.161 82.3636ZM242.586 72.8182V83H241.701V72.8182H242.586ZM247.061 83.174C246.6 83.174 246.179 83.0845 245.798 82.9055C245.417 82.7232 245.114 82.4614 244.888 82.12C244.663 81.7753 244.55 81.3577 244.55 80.8672C244.55 80.4893 244.621 80.1712 244.764 79.9126C244.906 79.6541 245.109 79.442 245.37 79.2763C245.632 79.1106 245.942 78.9796 246.3 78.8835C246.658 78.7874 247.052 78.7128 247.483 78.6598C247.911 78.6068 248.272 78.5604 248.567 78.5206C248.865 78.4808 249.093 78.4179 249.248 78.3317C249.404 78.2455 249.482 78.1063 249.482 77.9141V77.7351C249.482 77.2147 249.326 76.8054 249.015 76.5071C248.706 76.2055 248.262 76.0547 247.682 76.0547C247.132 76.0547 246.683 76.1757 246.335 76.4176C245.99 76.6596 245.748 76.9446 245.609 77.2727L244.769 76.9695C244.941 76.5518 245.18 76.2187 245.485 75.9702C245.79 75.7183 246.131 75.5376 246.509 75.4283C246.887 75.3156 247.27 75.2592 247.657 75.2592C247.949 75.2592 248.252 75.2973 248.567 75.3736C248.885 75.4498 249.18 75.5824 249.452 75.7713C249.724 75.9569 249.944 76.2171 250.113 76.5518C250.282 76.8833 250.367 77.3042 250.367 77.8146V83H249.482V81.7919H249.427C249.321 82.0173 249.164 82.236 248.955 82.4482C248.746 82.6603 248.484 82.8343 248.169 82.9702C247.855 83.1061 247.485 83.174 247.061 83.174ZM247.18 82.3636C247.651 82.3636 248.058 82.2592 248.403 82.0504C248.748 81.8416 249.013 81.5649 249.199 81.2202C249.387 80.8722 249.482 80.4893 249.482 80.0717V78.968C249.416 79.031 249.305 79.0874 249.149 79.1371C248.996 79.1868 248.819 79.2315 248.617 79.2713C248.418 79.3078 248.219 79.3393 248.02 79.3658C247.821 79.3923 247.642 79.4155 247.483 79.4354C247.052 79.4884 246.685 79.5713 246.38 79.6839C246.075 79.7966 245.841 79.9524 245.679 80.1513C245.516 80.3468 245.435 80.5987 245.435 80.907C245.435 81.371 245.601 81.7306 245.932 81.9858C246.264 82.2377 246.68 82.3636 247.18 82.3636ZM253.606 78.2273V83H252.721V75.3636H253.581V76.5618H253.661C253.84 76.1707 254.118 75.8575 254.496 75.6222C254.877 75.3835 255.348 75.2642 255.908 75.2642C256.421 75.2642 256.872 75.3719 257.26 75.5874C257.651 75.7995 257.954 76.1127 258.17 76.527C258.389 76.9413 258.498 77.45 258.498 78.0533V83H257.613V78.108C257.613 77.4815 257.437 76.986 257.086 76.6214C256.738 76.2569 256.271 76.0746 255.684 76.0746C255.283 76.0746 254.927 76.1607 254.615 76.3331C254.304 76.5054 254.057 76.754 253.874 77.0788C253.695 77.4003 253.606 77.7831 253.606 78.2273ZM263.811 83.1591C263.129 83.1591 262.534 82.9884 262.027 82.647C261.523 82.3056 261.132 81.8383 260.853 81.245C260.575 80.6518 260.436 79.9756 260.436 79.2166C260.436 78.451 260.576 77.7699 260.858 77.1733C261.143 76.5767 261.538 76.1094 262.041 75.7713C262.545 75.4299 263.13 75.2592 263.796 75.2592C264.307 75.2592 264.769 75.3587 265.183 75.5575C265.598 75.7531 265.939 76.0298 266.208 76.3878C266.479 76.7424 266.65 77.1567 266.72 77.6307H265.825C265.732 77.1998 265.508 76.8319 265.154 76.527C264.802 76.2187 264.355 76.0646 263.811 76.0646C263.324 76.0646 262.893 76.1972 262.519 76.4624C262.144 76.7242 261.851 77.0904 261.639 77.5611C261.43 78.0284 261.326 78.5703 261.326 79.1868C261.326 79.8066 261.428 80.3551 261.634 80.8324C261.839 81.3063 262.128 81.6776 262.499 81.946C262.873 82.2145 263.311 82.3487 263.811 82.3487C264.149 82.3487 264.458 82.2857 264.736 82.1598C265.018 82.0305 265.253 81.8482 265.442 81.6129C265.634 81.3776 265.763 81.0975 265.83 80.7727H266.725C266.658 81.2334 266.494 81.6444 266.232 82.0057C265.974 82.3636 265.638 82.6454 265.223 82.8509C264.812 83.0563 264.342 83.1591 263.811 83.1591ZM271.709 83.1591C270.996 83.1591 270.38 82.9934 269.859 82.6619C269.339 82.3272 268.936 81.8648 268.651 81.2749C268.369 80.6816 268.229 79.9988 268.229 79.2266C268.229 78.4576 268.369 77.7749 268.651 77.1783C268.936 76.5784 269.329 76.1094 269.829 75.7713C270.333 75.4299 270.915 75.2592 271.574 75.2592C271.989 75.2592 272.388 75.3355 272.773 75.4879C273.157 75.6371 273.502 75.8674 273.807 76.179C274.115 76.4872 274.359 76.8767 274.538 77.3473C274.716 77.8146 274.806 78.3681 274.806 79.0078V79.4453H268.84V78.6648H273.901C273.901 78.1742 273.802 77.7334 273.603 77.3423C273.407 76.9479 273.134 76.6364 272.783 76.4077C272.435 76.179 272.032 76.0646 271.574 76.0646C271.091 76.0646 270.665 76.1939 270.297 76.4524C269.929 76.7109 269.641 77.0523 269.432 77.4766C269.226 77.9008 269.122 78.3648 269.118 78.8686V79.3359C269.118 79.9425 269.223 80.4728 269.432 80.9268C269.644 81.3776 269.944 81.7273 270.332 81.9759C270.719 82.2244 271.178 82.3487 271.709 82.3487C272.07 82.3487 272.386 82.2924 272.658 82.1797C272.933 82.067 273.164 81.9162 273.349 81.7273C273.538 81.535 273.681 81.3246 273.777 81.0959L274.617 81.3693C274.501 81.6908 274.31 81.9875 274.045 82.2592C273.783 82.531 273.455 82.7498 273.061 82.9155C272.67 83.0779 272.219 83.1591 271.709 83.1591Z" fill="#637086"/>
<path d="M168.724 127.909V98.8182H170.588V127.909H168.724ZM174.099 108.125C173.993 107.133 173.546 106.36 172.758 105.807C171.978 105.254 170.963 104.977 169.713 104.977C168.834 104.977 168.08 105.11 167.452 105.375C166.823 105.64 166.342 106 166.008 106.455C165.675 106.909 165.505 107.428 165.497 108.011C165.497 108.496 165.607 108.917 165.827 109.273C166.054 109.629 166.361 109.932 166.747 110.182C167.133 110.424 167.561 110.629 168.031 110.795C168.501 110.962 168.974 111.102 169.452 111.216L171.633 111.761C172.512 111.966 173.357 112.242 174.167 112.591C174.986 112.939 175.717 113.379 176.361 113.909C177.012 114.439 177.527 115.08 177.906 115.83C178.285 116.58 178.474 117.458 178.474 118.466C178.474 119.83 178.126 121.03 177.429 122.068C176.732 123.098 175.724 123.905 174.406 124.489C173.096 125.064 171.508 125.352 169.645 125.352C167.834 125.352 166.262 125.072 164.929 124.511C163.603 123.951 162.565 123.133 161.815 122.057C161.073 120.981 160.671 119.67 160.611 118.125H164.758C164.819 118.936 165.069 119.61 165.508 120.148C165.948 120.686 166.52 121.087 167.224 121.352C167.936 121.617 168.732 121.75 169.611 121.75C170.527 121.75 171.33 121.614 172.02 121.341C172.717 121.061 173.262 120.674 173.656 120.182C174.05 119.682 174.251 119.098 174.258 118.432C174.251 117.826 174.073 117.326 173.724 116.932C173.376 116.53 172.887 116.197 172.258 115.932C171.637 115.659 170.91 115.417 170.077 115.205L167.429 114.523C165.512 114.03 163.997 113.284 162.883 112.284C161.777 111.277 161.224 109.939 161.224 108.273C161.224 106.902 161.596 105.701 162.338 104.67C163.088 103.64 164.107 102.841 165.395 102.273C166.683 101.697 168.141 101.409 169.77 101.409C171.421 101.409 172.868 101.697 174.111 102.273C175.361 102.841 176.342 103.633 177.054 104.648C177.766 105.655 178.133 106.814 178.156 108.125H174.099ZM191.471 101.727V125H187.256V105.83H187.119L181.676 109.307V105.443L187.46 101.727H191.471ZM205.471 125.318C203.956 125.318 202.6 125.034 201.403 124.466C200.206 123.89 199.256 123.102 198.551 122.102C197.854 121.102 197.483 119.958 197.437 118.67H201.528C201.604 119.625 202.017 120.405 202.767 121.011C203.517 121.61 204.418 121.909 205.471 121.909C206.297 121.909 207.032 121.72 207.676 121.341C208.32 120.962 208.828 120.436 209.199 119.761C209.57 119.087 209.752 118.318 209.744 117.455C209.752 116.576 209.566 115.795 209.187 115.114C208.809 114.432 208.29 113.898 207.631 113.511C206.971 113.117 206.214 112.92 205.358 112.92C204.661 112.913 203.975 113.042 203.301 113.307C202.627 113.572 202.093 113.92 201.699 114.352L197.892 113.727L199.108 101.727H212.608V105.25H202.596L201.926 111.42H202.062C202.494 110.913 203.104 110.492 203.892 110.159C204.68 109.818 205.543 109.648 206.483 109.648C207.892 109.648 209.149 109.981 210.256 110.648C211.362 111.307 212.233 112.216 212.869 113.375C213.506 114.534 213.824 115.86 213.824 117.352C213.824 118.89 213.468 120.261 212.756 121.466C212.051 122.663 211.07 123.606 209.812 124.295C208.562 124.977 207.115 125.318 205.471 125.318ZM225.721 125.318C224.206 125.318 222.85 125.034 221.653 124.466C220.456 123.89 219.506 123.102 218.801 122.102C218.104 121.102 217.733 119.958 217.687 118.67H221.778C221.854 119.625 222.267 120.405 223.017 121.011C223.767 121.61 224.668 121.909 225.721 121.909C226.547 121.909 227.282 121.72 227.926 121.341C228.57 120.962 229.078 120.436 229.449 119.761C229.82 119.087 230.002 118.318 229.994 117.455C230.002 116.576 229.816 115.795 229.437 115.114C229.059 114.432 228.54 113.898 227.881 113.511C227.221 113.117 226.464 112.92 225.608 112.92C224.911 112.913 224.225 113.042 223.551 113.307C222.877 113.572 222.343 113.92 221.949 114.352L218.142 113.727L219.358 101.727H232.858V105.25H222.846L222.176 111.42H222.312C222.744 110.913 223.354 110.492 224.142 110.159C224.93 109.818 225.793 109.648 226.733 109.648C228.142 109.648 229.399 109.981 230.506 110.648C231.612 111.307 232.483 112.216 233.119 113.375C233.756 114.534 234.074 115.86 234.074 117.352C234.074 118.89 233.718 120.261 233.006 121.466C232.301 122.663 231.32 123.606 230.062 124.295C228.812 124.977 227.365 125.318 225.721 125.318ZM246.153 125.318C244.464 125.318 242.964 125.034 241.653 124.466C240.35 123.898 239.328 123.121 238.585 122.136C237.85 121.144 237.487 120.019 237.494 118.761C237.487 117.784 237.699 116.886 238.131 116.068C238.562 115.25 239.146 114.568 239.881 114.023C240.623 113.47 241.449 113.117 242.358 112.966V112.807C241.161 112.542 240.191 111.932 239.449 110.977C238.714 110.015 238.35 108.905 238.358 107.648C238.35 106.451 238.684 105.383 239.358 104.443C240.032 103.504 240.956 102.765 242.131 102.227C243.305 101.682 244.646 101.409 246.153 101.409C247.646 101.409 248.975 101.682 250.142 102.227C251.316 102.765 252.24 103.504 252.915 104.443C253.596 105.383 253.937 106.451 253.937 107.648C253.937 108.905 253.562 110.015 252.812 110.977C252.07 111.932 251.112 112.542 249.937 112.807V112.966C250.846 113.117 251.665 113.47 252.392 114.023C253.127 114.568 253.71 115.25 254.142 116.068C254.581 116.886 254.801 117.784 254.801 118.761C254.801 120.019 254.43 121.144 253.687 122.136C252.945 123.121 251.922 123.898 250.619 124.466C249.324 125.034 247.835 125.318 246.153 125.318ZM246.153 122.068C247.024 122.068 247.782 121.92 248.426 121.625C249.07 121.322 249.57 120.898 249.926 120.352C250.282 119.807 250.464 119.178 250.471 118.466C250.464 117.723 250.271 117.068 249.892 116.5C249.521 115.924 249.009 115.473 248.358 115.148C247.714 114.822 246.979 114.659 246.153 114.659C245.32 114.659 244.578 114.822 243.926 115.148C243.274 115.473 242.759 115.924 242.381 116.5C242.009 117.068 241.828 117.723 241.835 118.466C241.828 119.178 242.002 119.807 242.358 120.352C242.714 120.89 243.214 121.311 243.858 121.614C244.509 121.917 245.274 122.068 246.153 122.068ZM246.153 111.466C246.865 111.466 247.494 111.322 248.04 111.034C248.593 110.746 249.028 110.345 249.346 109.83C249.665 109.314 249.828 108.72 249.835 108.045C249.828 107.379 249.668 106.795 249.358 106.295C249.047 105.788 248.615 105.398 248.062 105.125C247.509 104.845 246.873 104.705 246.153 104.705C245.418 104.705 244.771 104.845 244.21 105.125C243.657 105.398 243.225 105.788 242.915 106.295C242.612 106.795 242.464 107.379 242.471 108.045C242.464 108.72 242.615 109.314 242.926 109.83C243.244 110.337 243.68 110.739 244.233 111.034C244.793 111.322 245.434 111.466 246.153 111.466ZM260.429 125.25C259.739 125.25 259.149 125.008 258.656 124.523C258.164 124.038 257.921 123.447 257.929 122.75C257.921 122.068 258.164 121.485 258.656 121C259.149 120.515 259.739 120.273 260.429 120.273C261.096 120.273 261.675 120.515 262.167 121C262.667 121.485 262.921 122.068 262.929 122.75C262.921 123.212 262.8 123.633 262.565 124.011C262.338 124.39 262.035 124.693 261.656 124.92C261.285 125.14 260.876 125.25 260.429 125.25ZM274.827 125.443C272.955 125.443 271.349 124.97 270.008 124.023C268.675 123.068 267.649 121.693 266.929 119.898C266.217 118.095 265.861 115.924 265.861 113.386C265.868 110.848 266.228 108.689 266.94 106.909C267.66 105.121 268.686 103.758 270.02 102.818C271.361 101.879 272.963 101.409 274.827 101.409C276.69 101.409 278.292 101.879 279.633 102.818C280.974 103.758 282.001 105.121 282.713 106.909C283.433 108.697 283.792 110.856 283.792 113.386C283.792 115.932 283.433 118.106 282.713 119.909C282.001 121.705 280.974 123.076 279.633 124.023C278.3 124.97 276.698 125.443 274.827 125.443ZM274.827 121.886C276.281 121.886 277.429 121.17 278.27 119.739C279.118 118.299 279.542 116.182 279.542 113.386C279.542 111.538 279.349 109.985 278.963 108.727C278.577 107.47 278.031 106.523 277.327 105.886C276.622 105.242 275.789 104.92 274.827 104.92C273.38 104.92 272.236 105.64 271.395 107.08C270.554 108.511 270.13 110.614 270.122 113.386C270.114 115.242 270.3 116.803 270.679 118.068C271.065 119.333 271.611 120.288 272.315 120.932C273.02 121.568 273.857 121.886 274.827 121.886ZM296.17 125.443C294.299 125.443 292.693 124.97 291.352 124.023C290.019 123.068 288.992 121.693 288.273 119.898C287.56 118.095 287.204 115.924 287.204 113.386C287.212 110.848 287.572 108.689 288.284 106.909C289.004 105.121 290.03 103.758 291.364 102.818C292.704 101.879 294.307 101.409 296.17 101.409C298.034 101.409 299.636 101.879 300.977 102.818C302.318 103.758 303.345 105.121 304.057 106.909C304.776 108.697 305.136 110.856 305.136 113.386C305.136 115.932 304.776 118.106 304.057 119.909C303.345 121.705 302.318 123.076 300.977 124.023C299.644 124.97 298.042 125.443 296.17 125.443ZM296.17 121.886C297.625 121.886 298.773 121.17 299.614 119.739C300.462 118.299 300.886 116.182 300.886 113.386C300.886 111.538 300.693 109.985 300.307 108.727C299.92 107.47 299.375 106.523 298.67 105.886C297.966 105.242 297.132 104.92 296.17 104.92C294.723 104.92 293.579 105.64 292.739 107.08C291.898 108.511 291.473 110.614 291.466 113.386C291.458 115.242 291.644 116.803 292.023 118.068C292.409 119.333 292.954 120.288 293.659 120.932C294.364 121.568 295.201 121.886 296.17 121.886Z" fill="#110E34"/>
<path d="M159.367 161.273H160.578L162.998 165.347H163.1L165.521 161.273H166.731L163.578 166.403V170H162.521V166.403L159.367 161.273ZM169.695 170.136C169.104 170.136 168.585 169.996 168.139 169.714C167.696 169.433 167.35 169.04 167.1 168.534C166.852 168.028 166.729 167.437 166.729 166.761C166.729 166.08 166.852 165.484 167.1 164.976C167.35 164.467 167.696 164.072 168.139 163.791C168.585 163.51 169.104 163.369 169.695 163.369C170.286 163.369 170.803 163.51 171.246 163.791C171.692 164.072 172.038 164.467 172.286 164.976C172.536 165.484 172.661 166.08 172.661 166.761C172.661 167.437 172.536 168.028 172.286 168.534C172.038 169.04 171.692 169.433 171.246 169.714C170.803 169.996 170.286 170.136 169.695 170.136ZM169.695 169.233C170.144 169.233 170.513 169.118 170.803 168.888C171.092 168.658 171.307 168.355 171.446 167.98C171.585 167.605 171.655 167.199 171.655 166.761C171.655 166.324 171.585 165.916 171.446 165.538C171.307 165.161 171.092 164.855 170.803 164.622C170.513 164.389 170.144 164.273 169.695 164.273C169.246 164.273 168.877 164.389 168.587 164.622C168.297 164.855 168.082 165.161 167.943 165.538C167.804 165.916 167.734 166.324 167.734 166.761C167.734 167.199 167.804 167.605 167.943 167.98C168.082 168.355 168.297 168.658 168.587 168.888C168.877 169.118 169.246 169.233 169.695 169.233ZM178.321 167.324V163.455H179.326V170H178.321V168.892H178.253C178.099 169.224 177.861 169.507 177.537 169.74C177.213 169.97 176.804 170.085 176.309 170.085C175.9 170.085 175.537 169.996 175.218 169.817C174.9 169.635 174.65 169.362 174.468 168.999C174.287 168.632 174.196 168.17 174.196 167.614V163.455H175.201V167.545C175.201 168.023 175.335 168.403 175.602 168.688C175.872 168.972 176.216 169.114 176.633 169.114C176.883 169.114 177.138 169.05 177.396 168.922C177.657 168.794 177.876 168.598 178.052 168.334C178.231 168.07 178.321 167.733 178.321 167.324ZM189.18 164.92L188.276 165.176C188.22 165.026 188.136 164.879 188.025 164.737C187.917 164.592 187.769 164.473 187.582 164.379C187.394 164.286 187.154 164.239 186.862 164.239C186.461 164.239 186.127 164.331 185.86 164.516C185.596 164.697 185.464 164.929 185.464 165.21C185.464 165.46 185.555 165.658 185.737 165.803C185.918 165.947 186.203 166.068 186.589 166.165L187.56 166.403C188.146 166.545 188.582 166.763 188.869 167.055C189.156 167.345 189.299 167.719 189.299 168.176C189.299 168.551 189.191 168.886 188.975 169.182C188.762 169.477 188.464 169.71 188.08 169.881C187.697 170.051 187.251 170.136 186.742 170.136C186.075 170.136 185.522 169.991 185.085 169.702C184.647 169.412 184.37 168.989 184.254 168.432L185.208 168.193C185.299 168.545 185.471 168.81 185.724 168.986C185.98 169.162 186.313 169.25 186.725 169.25C187.194 169.25 187.566 169.151 187.842 168.952C188.12 168.75 188.259 168.509 188.259 168.227C188.259 168 188.18 167.81 188.021 167.656C187.862 167.5 187.617 167.384 187.288 167.307L186.197 167.051C185.597 166.909 185.157 166.689 184.876 166.391C184.597 166.089 184.458 165.713 184.458 165.261C184.458 164.892 184.562 164.565 184.769 164.281C184.98 163.997 185.265 163.774 185.626 163.612C185.989 163.45 186.401 163.369 186.862 163.369C187.509 163.369 188.018 163.511 188.387 163.795C188.759 164.08 189.024 164.455 189.18 164.92ZM192.739 170.153C192.324 170.153 191.948 170.075 191.61 169.919C191.272 169.76 191.003 169.531 190.804 169.233C190.606 168.932 190.506 168.568 190.506 168.142C190.506 167.767 190.58 167.463 190.728 167.23C190.875 166.994 191.073 166.81 191.32 166.676C191.567 166.543 191.84 166.443 192.138 166.378C192.439 166.31 192.742 166.256 193.046 166.216C193.444 166.165 193.766 166.126 194.013 166.101C194.263 166.072 194.445 166.026 194.559 165.96C194.675 165.895 194.733 165.781 194.733 165.619V165.585C194.733 165.165 194.618 164.838 194.388 164.605C194.161 164.372 193.816 164.256 193.353 164.256C192.873 164.256 192.496 164.361 192.223 164.571C191.951 164.781 191.759 165.006 191.648 165.244L190.694 164.903C190.864 164.506 191.091 164.196 191.375 163.974C191.662 163.75 191.975 163.594 192.313 163.506C192.654 163.415 192.989 163.369 193.319 163.369C193.529 163.369 193.77 163.395 194.043 163.446C194.319 163.494 194.584 163.595 194.84 163.749C195.098 163.902 195.313 164.134 195.483 164.443C195.654 164.753 195.739 165.168 195.739 165.688V170H194.733V169.114H194.682C194.614 169.256 194.5 169.408 194.341 169.57C194.182 169.732 193.971 169.869 193.706 169.983C193.442 170.097 193.12 170.153 192.739 170.153ZM192.893 169.25C193.29 169.25 193.625 169.172 193.898 169.016C194.174 168.859 194.381 168.658 194.52 168.411C194.662 168.163 194.733 167.903 194.733 167.631V166.71C194.691 166.761 194.597 166.808 194.452 166.851C194.31 166.891 194.145 166.926 193.958 166.957C193.773 166.986 193.593 167.011 193.417 167.034C193.243 167.054 193.103 167.071 192.995 167.085C192.733 167.119 192.489 167.175 192.262 167.251C192.037 167.325 191.856 167.437 191.716 167.588C191.58 167.736 191.512 167.937 191.512 168.193C191.512 168.543 191.641 168.807 191.9 168.986C192.161 169.162 192.492 169.25 192.893 169.25ZM202.693 163.455L200.272 170H199.249L196.829 163.455H197.92L199.727 168.67H199.795L201.602 163.455H202.693ZM206.53 170.136C205.899 170.136 205.355 169.997 204.898 169.719C204.443 169.438 204.092 169.045 203.845 168.543C203.601 168.037 203.479 167.449 203.479 166.778C203.479 166.108 203.601 165.517 203.845 165.006C204.092 164.491 204.436 164.091 204.877 163.804C205.32 163.514 205.837 163.369 206.428 163.369C206.769 163.369 207.105 163.426 207.438 163.54C207.77 163.653 208.073 163.838 208.345 164.094C208.618 164.347 208.835 164.682 208.997 165.099C209.159 165.517 209.24 166.031 209.24 166.642V167.068H204.195V166.199H208.217C208.217 165.83 208.144 165.5 207.996 165.21C207.851 164.92 207.644 164.692 207.374 164.524C207.107 164.357 206.791 164.273 206.428 164.273C206.027 164.273 205.68 164.372 205.388 164.571C205.098 164.767 204.875 165.023 204.719 165.338C204.563 165.653 204.484 165.991 204.484 166.352V166.932C204.484 167.426 204.57 167.845 204.74 168.189C204.913 168.53 205.154 168.79 205.46 168.969C205.767 169.145 206.124 169.233 206.53 169.233C206.794 169.233 207.033 169.196 207.246 169.122C207.462 169.045 207.648 168.932 207.804 168.781C207.96 168.628 208.081 168.437 208.166 168.21L209.138 168.483C209.036 168.812 208.864 169.102 208.622 169.352C208.381 169.599 208.082 169.793 207.727 169.932C207.372 170.068 206.973 170.136 206.53 170.136ZM250.425 163.455V164.307H247.033V163.455H250.425ZM248.022 161.886H249.027V168.125C249.027 168.409 249.069 168.622 249.151 168.764C249.236 168.903 249.344 168.997 249.475 169.045C249.608 169.091 249.749 169.114 249.897 169.114C250.008 169.114 250.098 169.108 250.169 169.097C250.241 169.082 250.297 169.071 250.34 169.062L250.544 169.966C250.476 169.991 250.381 170.017 250.259 170.043C250.137 170.071 249.982 170.085 249.794 170.085C249.51 170.085 249.232 170.024 248.959 169.902C248.689 169.78 248.465 169.594 248.286 169.344C248.11 169.094 248.022 168.778 248.022 168.398V161.886ZM253.084 166.062V170H252.079V161.273H253.084V164.477H253.169C253.323 164.139 253.553 163.871 253.86 163.672C254.169 163.47 254.581 163.369 255.096 163.369C255.542 163.369 255.932 163.459 256.268 163.638C256.603 163.814 256.863 164.085 257.047 164.452C257.235 164.815 257.329 165.278 257.329 165.841V170H256.323V165.909C256.323 165.389 256.188 164.987 255.918 164.703C255.651 164.416 255.28 164.273 254.806 164.273C254.476 164.273 254.181 164.342 253.919 164.482C253.661 164.621 253.456 164.824 253.306 165.091C253.158 165.358 253.084 165.682 253.084 166.062ZM259.168 170V163.455H260.174V170H259.168ZM259.68 162.364C259.484 162.364 259.315 162.297 259.173 162.163C259.033 162.03 258.964 161.869 258.964 161.682C258.964 161.494 259.033 161.334 259.173 161.2C259.315 161.067 259.484 161 259.68 161C259.876 161 260.043 161.067 260.183 161.2C260.325 161.334 260.396 161.494 260.396 161.682C260.396 161.869 260.325 162.03 260.183 162.163C260.043 162.297 259.876 162.364 259.68 162.364ZM266.652 164.92L265.749 165.176C265.692 165.026 265.608 164.879 265.498 164.737C265.39 164.592 265.242 164.473 265.054 164.379C264.867 164.286 264.627 164.239 264.334 164.239C263.934 164.239 263.6 164.331 263.333 164.516C263.069 164.697 262.937 164.929 262.937 165.21C262.937 165.46 263.027 165.658 263.209 165.803C263.391 165.947 263.675 166.068 264.062 166.165L265.033 166.403C265.618 166.545 266.054 166.763 266.341 167.055C266.628 167.345 266.772 167.719 266.772 168.176C266.772 168.551 266.664 168.886 266.448 169.182C266.235 169.477 265.937 169.71 265.553 169.881C265.169 170.051 264.723 170.136 264.215 170.136C263.547 170.136 262.995 169.991 262.557 169.702C262.12 169.412 261.843 168.989 261.726 168.432L262.681 168.193C262.772 168.545 262.944 168.81 263.196 168.986C263.452 169.162 263.786 169.25 264.198 169.25C264.667 169.25 265.039 169.151 265.314 168.952C265.593 168.75 265.732 168.509 265.732 168.227C265.732 168 265.652 167.81 265.493 167.656C265.334 167.5 265.09 167.384 264.76 167.307L263.669 167.051C263.07 166.909 262.63 166.689 262.348 166.391C262.07 166.089 261.931 165.713 261.931 165.261C261.931 164.892 262.035 164.565 262.242 164.281C262.452 163.997 262.738 163.774 263.098 163.612C263.462 163.45 263.874 163.369 264.334 163.369C264.982 163.369 265.491 163.511 265.86 163.795C266.232 164.08 266.496 164.455 266.652 164.92ZM271.661 170V163.455H272.632V164.477H272.717C272.854 164.128 273.074 163.857 273.378 163.663C273.682 163.467 274.047 163.369 274.473 163.369C274.905 163.369 275.264 163.467 275.551 163.663C275.841 163.857 276.067 164.128 276.229 164.477H276.297C276.465 164.139 276.716 163.871 277.051 163.672C277.386 163.47 277.788 163.369 278.257 163.369C278.842 163.369 279.321 163.553 279.693 163.919C280.065 164.283 280.252 164.849 280.252 165.619V170H279.246V165.619C279.246 165.136 279.114 164.791 278.85 164.584C278.585 164.376 278.274 164.273 277.916 164.273C277.456 164.273 277.1 164.412 276.847 164.69C276.594 164.966 276.467 165.315 276.467 165.739V170H275.445V165.517C275.445 165.145 275.324 164.845 275.082 164.618C274.841 164.388 274.53 164.273 274.149 164.273C273.888 164.273 273.644 164.342 273.416 164.482C273.192 164.621 273.01 164.814 272.871 165.061C272.734 165.305 272.666 165.588 272.666 165.909V170H271.661ZM284.749 170.136C284.158 170.136 283.64 169.996 283.194 169.714C282.751 169.433 282.404 169.04 282.154 168.534C281.907 168.028 281.783 167.437 281.783 166.761C281.783 166.08 281.907 165.484 282.154 164.976C282.404 164.467 282.751 164.072 283.194 163.791C283.64 163.51 284.158 163.369 284.749 163.369C285.34 163.369 285.857 163.51 286.301 163.791C286.747 164.072 287.093 164.467 287.34 164.976C287.59 165.484 287.715 166.08 287.715 166.761C287.715 167.437 287.59 168.028 287.34 168.534C287.093 169.04 286.747 169.433 286.301 169.714C285.857 169.996 285.34 170.136 284.749 170.136ZM284.749 169.233C285.198 169.233 285.568 169.118 285.857 168.888C286.147 168.658 286.362 168.355 286.501 167.98C286.64 167.605 286.71 167.199 286.71 166.761C286.71 166.324 286.64 165.916 286.501 165.538C286.362 165.161 286.147 164.855 285.857 164.622C285.568 164.389 285.198 164.273 284.749 164.273C284.301 164.273 283.931 164.389 283.641 164.622C283.352 164.855 283.137 165.161 282.998 165.538C282.859 165.916 282.789 166.324 282.789 166.761C282.789 167.199 282.859 167.605 282.998 167.98C283.137 168.355 283.352 168.658 283.641 168.888C283.931 169.118 284.301 169.233 284.749 169.233ZM290.256 166.062V170H289.25V163.455H290.222V164.477H290.307C290.461 164.145 290.694 163.878 291.006 163.676C291.319 163.472 291.722 163.369 292.216 163.369C292.66 163.369 293.047 163.46 293.38 163.642C293.712 163.821 293.971 164.094 294.155 164.46C294.34 164.824 294.432 165.284 294.432 165.841V170H293.427V165.909C293.427 165.395 293.293 164.994 293.026 164.707C292.759 164.418 292.393 164.273 291.927 164.273C291.606 164.273 291.319 164.342 291.066 164.482C290.816 164.621 290.618 164.824 290.473 165.091C290.329 165.358 290.256 165.682 290.256 166.062ZM299.117 163.455V164.307H295.725V163.455H299.117ZM296.713 161.886H297.719V168.125C297.719 168.409 297.76 168.622 297.842 168.764C297.928 168.903 298.036 168.997 298.166 169.045C298.3 169.091 298.44 169.114 298.588 169.114C298.699 169.114 298.79 169.108 298.861 169.097C298.932 169.082 298.989 169.071 299.031 169.062L299.236 169.966C299.168 169.991 299.073 170.017 298.95 170.043C298.828 170.071 298.673 170.085 298.486 170.085C298.202 170.085 297.923 170.024 297.651 169.902C297.381 169.78 297.156 169.594 296.977 169.344C296.801 169.094 296.713 168.778 296.713 168.398V161.886ZM301.776 166.062V170H300.77V161.273H301.776V164.477H301.861C302.014 164.139 302.244 163.871 302.551 163.672C302.861 163.47 303.273 163.369 303.787 163.369C304.233 163.369 304.624 163.459 304.959 163.638C305.294 163.814 305.554 164.085 305.739 164.452C305.926 164.815 306.02 165.278 306.02 165.841V170H305.014V165.909C305.014 165.389 304.879 164.987 304.609 164.703C304.342 164.416 303.972 164.273 303.497 164.273C303.168 164.273 302.872 164.342 302.611 164.482C302.352 164.621 302.148 164.824 301.997 165.091C301.85 165.358 301.776 165.682 301.776 166.062Z" fill="#637086"/>
<path d="M220.165 167.552C220.165 167.992 220.049 168.4 219.817 168.776C219.593 169.144 219.257 169.448 218.809 169.688C218.369 169.92 217.845 170.048 217.237 170.072V171.044H216.469V170.06C215.621 169.988 214.937 169.736 214.417 169.304C213.897 168.864 213.621 168.268 213.589 167.516H215.773C215.821 167.996 216.053 168.304 216.469 168.44V166.544C215.845 166.384 215.345 166.228 214.969 166.076C214.601 165.924 214.277 165.68 213.997 165.344C213.717 165.008 213.577 164.548 213.577 163.964C213.577 163.236 213.845 162.652 214.381 162.212C214.925 161.772 215.621 161.524 216.469 161.468V160.496H217.237V161.468C218.077 161.532 218.741 161.776 219.229 162.2C219.717 162.624 219.989 163.212 220.045 163.964H217.849C217.801 163.532 217.597 163.252 217.237 163.124V164.984C217.901 165.168 218.413 165.332 218.773 165.476C219.133 165.62 219.453 165.86 219.733 166.196C220.021 166.524 220.165 166.976 220.165 167.552ZM215.749 163.868C215.749 164.068 215.809 164.236 215.929 164.372C216.057 164.508 216.237 164.628 216.469 164.732V163.064C216.245 163.104 216.069 163.192 215.941 163.328C215.813 163.456 215.749 163.636 215.749 163.868ZM217.237 168.476C217.477 168.436 217.665 168.34 217.801 168.188C217.945 168.036 218.017 167.848 218.017 167.624C218.017 167.416 217.949 167.248 217.813 167.12C217.685 166.984 217.493 166.868 217.237 166.772V168.476ZM221.415 168.356C221.687 168.14 221.811 168.04 221.787 168.056C222.571 167.408 223.187 166.876 223.635 166.46C224.091 166.044 224.475 165.608 224.787 165.152C225.099 164.696 225.255 164.252 225.255 163.82C225.255 163.492 225.179 163.236 225.027 163.052C224.875 162.868 224.647 162.776 224.343 162.776C224.039 162.776 223.799 162.892 223.623 163.124C223.455 163.348 223.371 163.668 223.371 164.084H221.391C221.407 163.404 221.551 162.836 221.823 162.38C222.103 161.924 222.467 161.588 222.915 161.372C223.371 161.156 223.875 161.048 224.427 161.048C225.379 161.048 226.095 161.292 226.575 161.78C227.063 162.268 227.307 162.904 227.307 163.688C227.307 164.544 227.015 165.34 226.431 166.076C225.847 166.804 225.103 167.516 224.199 168.212H227.439V169.88H221.415V168.356ZM228.343 165.5C228.343 164.124 228.607 163.04 229.135 162.248C229.671 161.456 230.531 161.06 231.715 161.06C232.899 161.06 233.755 161.456 234.283 162.248C234.819 163.04 235.087 164.124 235.087 165.5C235.087 166.892 234.819 167.984 234.283 168.776C233.755 169.568 232.899 169.964 231.715 169.964C230.531 169.964 229.671 169.568 229.135 168.776C228.607 167.984 228.343 166.892 228.343 165.5ZM233.071 165.5C233.071 164.692 232.983 164.072 232.807 163.64C232.631 163.2 232.267 162.98 231.715 162.98C231.163 162.98 230.799 163.2 230.623 163.64C230.447 164.072 230.359 164.692 230.359 165.5C230.359 166.044 230.391 166.496 230.455 166.856C230.519 167.208 230.647 167.496 230.839 167.72C231.039 167.936 231.331 168.044 231.715 168.044C232.099 168.044 232.387 167.936 232.579 167.72C232.779 167.496 232.911 167.208 232.975 166.856C233.039 166.496 233.071 166.044 233.071 165.5ZM236.171 165.5C236.171 164.124 236.435 163.04 236.963 162.248C237.499 161.456 238.359 161.06 239.543 161.06C240.727 161.06 241.583 161.456 242.111 162.248C242.647 163.04 242.915 164.124 242.915 165.5C242.915 166.892 242.647 167.984 242.111 168.776C241.583 169.568 240.727 169.964 239.543 169.964C238.359 169.964 237.499 169.568 236.963 168.776C236.435 167.984 236.171 166.892 236.171 165.5ZM240.899 165.5C240.899 164.692 240.811 164.072 240.635 163.64C240.459 163.2 240.095 162.98 239.543 162.98C238.991 162.98 238.627 163.2 238.451 163.64C238.275 164.072 238.187 164.692 238.187 165.5C238.187 166.044 238.219 166.496 238.283 166.856C238.347 167.208 238.475 167.496 238.667 167.72C238.867 167.936 239.159 168.044 239.543 168.044C239.927 168.044 240.215 167.936 240.407 167.72C240.607 167.496 240.739 167.208 240.803 166.856C240.867 166.496 240.899 166.044 240.899 165.5Z" fill="#049F6C"/>
</g>
<defs>
<filter id="filter0_d_2476_2" x="0.333252" y="0" width="489.333" height="278" filterUnits="userSpaceOnUse" color-interpolation-filters="sRGB">
<feFlood flood-opacity="0" result="BackgroundImageFix"/>
<feColorMatrix in="SourceAlpha" type="matrix" values="0 0 0 0 0 0 0 0 0 0 0 0 0 0 0 0 0 0 127 0" result="hardAlpha"/>
<feOffset dx="12" dy="18"/>
<feGaussianBlur stdDeviation="33"/>
<feComposite in2="hardAlpha" operator="out"/>
<feColorMatrix type="matrix" values="0 0 0 0 0.203922 0 0 0 0 0.0784314 0 0 0 0 0.545098 0 0 0 0.11 0"/>
<feBlend mode="normal" in2="BackgroundImageFix" result="effect1_dropShadow_2476_2"/>
<feBlend mode="normal" in="SourceGraphic" in2="effect1_dropShadow_2476_2" result="shape"/>
</filter>
</defs>
</svg>
